<svg width="184" height="36" viewBox="0 0 184 36" fill="none" xmlns="http://www.w3.org/2000/svg">
<path opacity="0.774926" fill-rule="evenodd" clip-rule="evenodd" d="M161.158 4.99355C159.703 6.47002 158.834 8.31375 158.834 10.564C158.834 10.7693 158.683 10.9393 158.486 10.9687C158.42 11.0134 158.341 11.0396 158.255 11.0396C156.005 11.0396 154.161 11.9083 152.685 13.3634C152.166 13.8752 151.73 14.4242 151.376 14.9725C151.253 15.1636 151.149 15.3404 151.064 15.4982C151.014 15.5905 150.982 15.6544 150.968 15.6849C150.466 16.7922 149.924 17.581 149.331 18.0315C149.924 18.482 150.466 19.2708 150.968 20.3781C150.982 20.4086 151.014 20.4725 151.064 20.5648C151.149 20.7226 151.253 20.8994 151.376 21.0905C151.73 21.6388 152.166 22.1878 152.685 22.6996C154.161 24.1546 156.005 25.0234 158.255 25.0234C158.274 25.0234 158.291 25.0246 158.309 25.0269C158.31 25.0269 158.311 25.0269 158.312 25.0269C158.538 25.0269 158.721 25.2101 158.721 25.4361C158.721 27.6863 159.59 29.53 161.045 31.0065C161.556 31.5258 162.105 31.9612 162.654 32.3152C162.845 32.4385 163.022 32.5426 163.179 32.6278C163.272 32.6777 163.336 32.7095 163.366 32.7235C164.474 33.226 165.262 33.7679 165.713 34.3606C166.163 33.7679 166.952 33.226 168.06 32.7235C168.09 32.7095 168.154 32.6777 168.247 32.6278C168.404 32.5426 168.581 32.4385 168.772 32.3152C169.321 31.9612 169.87 31.5258 170.381 31.0065C171.836 29.53 172.705 27.6863 172.705 25.4361C172.705 25.2494 172.83 25.0919 173.001 25.0428C173.04 25.0306 173.081 25.0241 173.124 25.0241C175.374 25.0241 177.218 24.1553 178.694 22.7002C179.213 22.1885 179.649 21.6395 180.003 21.0911C180.126 20.9001 180.23 20.7232 180.315 20.5655C180.365 20.4731 180.397 20.4093 180.411 20.3788C180.938 19.2172 181.508 18.4062 182.135 17.9684C181.508 17.5306 180.938 16.7196 180.411 15.5581C180.397 15.5276 180.365 15.4637 180.315 15.3714C180.23 15.2136 180.126 15.0368 180.003 14.8457C179.649 14.2974 179.213 13.7484 178.694 13.2366C177.312 11.875 175.609 11.0268 173.552 10.9235C173.494 10.9552 173.427 10.9732 173.356 10.9732C173.278 10.9732 173.205 10.9511 173.142 10.9128L173.124 10.9128C172.898 10.9128 172.714 10.7296 172.714 10.5036C172.714 10.3449 172.805 10.2074 172.937 10.1395C172.834 8.08066 171.986 6.3761 170.623 4.99355C170.112 4.47428 169.563 4.03881 169.014 3.68486C168.823 3.5615 168.646 3.4574 168.489 3.37219C168.396 3.32232 168.332 3.29055 168.302 3.27649C167.14 2.74915 166.328 2.17845 165.891 1.55102C165.453 2.17845 164.642 2.74915 163.479 3.27649C163.449 3.29055 163.385 3.32232 163.293 3.37219C163.135 3.4574 162.958 3.5615 162.767 3.68486C162.219 4.03881 161.67 4.47428 161.158 4.99355ZM157.911 25.8355C158.008 28.1381 158.951 30.0483 160.462 31.5809C161.018 32.1456 161.614 32.6179 162.21 33.0028C162.57 33.2355 162.854 33.3887 163.026 33.4678C164.371 34.0783 165.109 34.6982 165.293 35.2939C165.277 35.3916 165.269 35.4905 165.269 35.5908C165.269 35.8168 165.452 36 165.678 36C165.69 36 165.701 35.9995 165.713 35.9986C165.724 35.9995 165.736 36 165.748 36C165.974 36 166.157 35.8168 166.157 35.5908C166.157 35.4905 166.149 35.3916 166.133 35.2939C166.317 34.6982 167.055 34.0783 168.4 33.4678C168.572 33.3887 168.856 33.2355 169.216 33.0028C169.812 32.6179 170.408 32.1456 170.964 31.5809C172.475 30.0481 173.418 28.1374 173.515 25.8344C175.821 25.7385 177.734 24.7953 179.269 23.2831C179.833 22.7267 180.306 22.1312 180.69 21.535C180.923 21.1745 181.076 20.8907 181.155 20.7191C181.868 19.1482 182.594 18.4061 183.278 18.4061C183.504 18.4061 183.688 18.2229 183.688 17.9969L183.687 17.9834L183.687 17.9684C183.687 17.959 183.688 17.9495 183.688 17.94C183.688 17.714 183.504 17.5308 183.278 17.5308C182.594 17.5308 181.868 16.7886 181.155 15.2177C181.076 15.0462 180.923 14.7623 180.69 14.4018C180.306 13.8057 179.833 13.2102 179.269 12.6537C177.788 11.1943 175.954 10.2648 173.755 10.1156C173.646 7.83487 172.706 5.94085 171.206 4.4191C170.65 3.85447 170.054 3.38213 169.458 2.99728C169.098 2.76458 168.814 2.61129 168.642 2.53223C167.071 1.81955 166.329 1.0941 166.329 0.409196C166.329 0.183203 166.146 0 165.92 0C165.91 0 165.9 0.000350518 165.891 0.0010398C165.881 0.000350517 165.871 0 165.861 0C165.635 0 165.452 0.183203 165.452 0.409196C165.452 1.0941 164.71 1.81955 163.139 2.53223C162.967 2.61129 162.684 2.76458 162.323 2.99728C161.727 3.38213 161.131 3.85447 160.575 4.4191C159.052 5.96491 158.106 7.89486 158.022 10.2241C155.645 10.2826 153.68 11.234 152.111 12.7805C151.546 13.337 151.074 13.9325 150.689 14.5286C150.456 14.8891 150.303 15.173 150.224 15.3445C149.614 16.6892 148.994 17.4267 148.399 17.6112C148.301 17.5951 148.201 17.587 148.101 17.587C147.875 17.587 147.691 17.7702 147.691 17.9962C147.691 18.0081 147.692 18.0199 147.693 18.0315C147.692 18.0431 147.691 18.0549 147.691 18.0668C147.691 18.2928 147.875 18.476 148.101 18.476C148.201 18.476 148.301 18.4679 148.399 18.4518C148.994 18.6363 149.614 19.3738 150.224 20.7185C150.303 20.89 150.456 21.1739 150.689 21.5343C151.074 22.1305 151.546 22.726 152.111 23.2825C153.655 24.8048 155.584 25.7506 157.911 25.8355Z" fill="#93969F"/>
<path opacity="0.452172" fill-rule="evenodd" clip-rule="evenodd" d="M176.944 18.1998C178.606 16.4711 179.331 14.3964 179.348 12.1791C179.353 11.3863 179.266 10.6313 179.117 9.93757C179.027 9.51813 178.934 9.20902 178.869 9.03183C178.262 7.41709 178.25 6.37933 178.734 5.89502C178.894 5.73522 178.894 5.47613 178.734 5.31633C178.729 5.31049 178.723 5.30485 178.717 5.29944C178.71 5.29126 178.702 5.28329 178.694 5.27555C178.535 5.11575 178.276 5.11575 178.116 5.27555C177.631 5.75986 176.594 5.74803 174.979 5.14117C174.802 5.07578 174.493 4.98346 174.073 4.89311C173.38 4.74368 172.624 4.6566 171.832 4.66238C169.616 4.67855 167.543 5.40319 165.816 7.06181C164.109 5.47241 162.074 4.77595 159.903 4.76011C159.11 4.75432 158.355 4.8414 157.661 4.99083C157.242 5.08119 156.933 5.17351 156.756 5.2389C155.141 5.84575 154.103 5.85758 153.619 5.37328C153.459 5.21348 153.2 5.21348 153.04 5.37328C153.033 5.38001 153.027 5.38691 153.021 5.39398C153.014 5.40013 153.007 5.40657 153 5.4133C152.84 5.5731 152.84 5.83219 153 5.99199C153.484 6.47629 153.473 7.51406 152.866 9.12879C152.8 9.30599 152.708 9.61509 152.618 10.0345C152.468 10.7282 152.381 11.4833 152.387 12.276C152.403 14.4502 153.101 16.4871 154.695 18.1953C153.173 19.8804 152.504 21.8763 152.489 24.0036C152.483 24.7963 152.57 25.5514 152.72 26.2451C152.81 26.6645 152.902 26.9736 152.968 27.1508C153.487 28.5329 153.571 29.4923 153.28 30.0437C153.2 30.1017 153.124 30.1662 153.052 30.2374C152.893 30.3972 152.893 30.6563 153.052 30.8161C153.06 30.8239 153.068 30.8313 153.077 30.8383C153.085 30.8479 153.093 30.8573 153.102 30.8663C153.262 31.0261 153.521 31.0261 153.681 30.8663C153.752 30.795 153.817 30.7189 153.875 30.638C154.426 30.3475 155.386 30.4309 156.768 30.9504C156.945 31.0158 157.254 31.1082 157.674 31.1985C158.367 31.3479 159.122 31.435 159.915 31.4292C162.084 31.4134 164.116 30.7188 165.821 29.1339C167.518 30.692 169.535 31.3757 171.686 31.3914C172.479 31.3972 173.234 31.3101 173.928 31.1607C174.347 31.0704 174.656 30.978 174.833 30.9126C176.215 30.3935 177.174 30.3098 177.725 30.5997C177.784 30.6808 177.848 30.757 177.92 30.8285C178.08 30.9883 178.339 30.9883 178.499 30.8285C178.507 30.82 178.515 30.8113 178.523 30.8023C178.532 30.7947 178.54 30.7867 178.549 30.7783C178.709 30.6185 178.709 30.3594 178.549 30.1996C178.477 30.1281 178.401 30.0633 178.32 30.0052C178.03 29.4537 178.114 28.4945 178.633 27.113C178.698 26.9358 178.791 26.6267 178.881 26.2073C179.03 25.5136 179.117 24.7585 179.112 23.9658C179.096 21.8563 178.439 19.876 176.944 18.1998ZM171.838 5.48075C169.765 5.49588 167.847 6.18528 166.256 7.77643C166.195 7.83704 166.12 7.87467 166.042 7.8893C165.881 8.03379 165.634 8.02874 165.479 7.87416C163.888 6.283 161.97 5.5936 159.897 5.57848C159.168 5.57316 158.472 5.65344 157.834 5.79087C157.611 5.83877 157.413 5.89019 157.241 5.94151C157.14 5.97154 157.073 5.99421 157.041 6.00583C155.847 6.4545 154.871 6.62476 154.118 6.49114C154.252 7.24397 154.081 8.22058 153.633 9.4144C153.621 9.44591 153.598 9.51351 153.568 9.61407C153.517 9.78588 153.466 9.98453 153.418 10.2069C153.28 10.8449 153.2 11.541 153.205 12.27C153.22 14.2925 153.877 16.1676 155.387 17.7354C155.466 17.7497 155.542 17.7875 155.603 17.8488C155.763 18.0086 155.763 18.2677 155.603 18.4275C154.012 20.0186 153.322 21.9366 153.307 24.0096C153.302 24.7386 153.382 25.4347 153.52 26.0727C153.568 26.2951 153.619 26.4937 153.67 26.6655C153.7 26.7661 153.723 26.8337 153.735 26.8652C154.162 28.0033 154.337 28.944 154.237 29.6815C154.974 29.581 155.915 29.7557 157.054 30.1835C157.085 30.1951 157.153 30.2178 157.253 30.2478C157.425 30.2991 157.624 30.3506 157.846 30.3985C158.484 30.5359 159.18 30.6162 159.909 30.6109C161.982 30.5957 163.9 29.9063 165.491 28.3152C165.501 28.3059 165.51 28.2972 165.52 28.289C165.524 28.2851 165.527 28.2812 165.531 28.2774C165.691 28.1176 165.95 28.1176 166.11 28.2774C167.701 29.8685 169.619 30.5579 171.692 30.5731C172.421 30.5784 173.117 30.4981 173.755 30.3607C173.978 30.3128 174.176 30.2613 174.348 30.21C174.449 30.18 174.516 30.1573 174.548 30.1457C175.686 29.718 176.626 29.5433 177.364 29.6437C177.264 28.9061 177.438 27.9654 177.866 26.8274C177.878 26.7959 177.9 26.7283 177.93 26.6277C177.982 26.4559 178.033 26.2573 178.081 26.0349C178.218 25.3969 178.299 24.7008 178.293 23.9718C178.278 21.8988 177.589 19.9808 175.998 18.3897C175.838 18.2299 175.838 17.9708 175.998 17.811C176.08 17.7286 176.189 17.6886 176.297 17.6912C177.843 16.1127 178.514 14.2183 178.529 12.1731C178.535 11.444 178.454 10.7479 178.317 10.1099C178.269 9.88757 178.218 9.68892 178.166 9.51711C178.136 9.41654 178.114 9.34894 178.102 9.31743C177.653 8.1232 177.483 7.14632 177.617 6.39339C176.864 6.52705 175.887 6.35681 174.693 5.90811C174.662 5.89648 174.594 5.87382 174.494 5.84378C174.322 5.79247 174.123 5.74104 173.901 5.69315C173.263 5.55571 172.567 5.47543 171.838 5.48075Z" fill="black" fill-opacity="0.55"/>
<path fill-rule="evenodd" clip-rule="evenodd" d="M159.44 14.6137C159.813 15.3612 160.813 16.3646 162.432 17.5924C162.523 17.6125 162.608 17.6637 162.669 17.7436C162.806 17.9232 162.772 18.18 162.592 18.3171C160.806 19.6802 159.698 20.7878 159.278 21.6086C159.061 22.0322 158.977 22.5453 158.916 23.554C158.875 24.2417 158.836 24.7285 158.77 25.0979C159.14 25.0323 159.627 24.9933 160.315 24.9518C161.324 24.8909 161.837 24.8076 162.261 24.5905C163.011 24.2059 164.001 23.2475 165.206 21.7216C165.207 21.5988 165.263 21.4777 165.369 21.398C165.413 21.3646 165.462 21.3416 165.512 21.3285L165.552 21.2762C165.689 21.0966 165.946 21.0621 166.126 21.1992C166.305 21.3363 166.34 21.5931 166.203 21.7728L166.185 21.7955C167.318 23.2546 168.25 24.1633 168.955 24.5148C169.341 24.7077 169.818 24.7766 170.758 24.8162C171.456 24.8456 171.934 24.8761 172.291 24.9409C172.226 24.5841 172.195 24.1059 172.166 23.4076C172.126 22.4681 172.057 21.9913 171.864 21.6046C171.488 20.8502 170.473 19.8352 168.827 18.5919C168.647 18.4557 168.611 18.1991 168.748 18.0188C168.807 17.9408 168.888 17.8898 168.976 17.8681C170.722 16.5289 171.807 15.439 172.222 14.6287C172.439 14.2051 172.523 13.692 172.584 12.6833C172.625 11.9956 172.664 11.5088 172.73 11.1394C172.36 11.205 171.873 11.244 171.185 11.2855C170.176 11.3464 169.663 11.4297 169.239 11.6468C168.447 12.0532 167.386 13.1004 166.086 14.7809C166.125 14.9351 166.071 15.1042 165.936 15.206C165.755 15.3422 165.499 15.3065 165.363 15.1262C164.119 13.4806 163.104 12.4656 162.35 12.0892C161.963 11.8963 161.486 11.8274 160.547 11.7878C159.884 11.7599 159.419 11.731 159.068 11.6725C159.099 11.9727 159.119 12.3421 159.139 12.8106C159.178 13.7501 159.247 14.227 159.44 14.6137ZM173.482 9.9052C173.405 9.92044 173.332 9.95776 173.272 10.0172C172.983 10.3062 172.558 10.3828 171.136 10.4686C170.013 10.5364 169.426 10.6318 168.866 10.9185C167.975 11.3754 166.892 12.4284 165.592 14.0844C164.465 12.6627 163.514 11.7554 162.715 11.3569C162.189 11.0943 161.637 11.0146 160.581 10.9701C159.615 10.9295 159.144 10.884 158.861 10.7625C158.78 10.5869 158.672 10.4432 158.526 10.2971C158.366 10.1373 158.107 10.1373 157.947 10.2971C157.798 10.4457 157.788 10.6803 157.916 10.8409C157.903 10.9599 157.942 11.0835 158.033 11.1747C158.08 11.2213 158.126 11.2641 158.174 11.3033C158.252 11.5993 158.288 12.0579 158.321 12.8451C158.366 13.901 158.445 14.4528 158.708 14.979C159.126 15.816 160.102 16.8201 161.643 18.0179C160.028 19.2926 159 20.357 158.549 21.2353C158.263 21.7949 158.167 22.3823 158.099 23.5047C158.014 24.9268 157.937 25.3526 157.648 25.6416C157.488 25.8014 157.488 26.0605 157.648 26.2203C157.749 26.3209 157.889 26.3582 158.018 26.3321C158.095 26.3169 158.168 26.2795 158.228 26.2201C158.517 25.9311 158.942 25.8545 160.364 25.7687C161.487 25.7009 162.074 25.6055 162.634 25.3188C163.469 24.8907 164.473 23.9393 165.665 22.4589C166.812 23.9155 167.779 24.843 168.589 25.2471C169.116 25.5097 169.667 25.5894 170.723 25.6339C172.041 25.6894 172.438 25.7538 172.693 26.008C172.852 26.1678 173.111 26.1678 173.271 26.008C173.286 25.993 173.3 25.9771 173.312 25.9606C173.328 25.9487 173.343 25.9356 173.358 25.9212C173.517 25.7614 173.517 25.5023 173.358 25.3425C173.103 25.0882 173.039 24.6911 172.983 23.3732C172.939 22.3173 172.859 21.7655 172.597 21.2393C172.189 20.4224 171.25 19.4463 169.772 18.2864C171.435 16.982 172.493 15.8956 172.951 15.002C173.237 14.4424 173.333 13.855 173.401 12.7326C173.486 11.3105 173.563 10.8847 173.852 10.5957C174.012 10.4359 174.012 10.1768 173.852 10.017C173.751 9.9164 173.611 9.87914 173.482 9.9052Z" fill="#D37760"/>
<path fill-rule="evenodd" clip-rule="evenodd" d="M163.716 11.2004C163.451 11.9926 163.449 13.409 163.725 15.4218C163.776 15.5006 163.8 15.597 163.786 15.6971C163.756 15.9211 163.55 16.0783 163.326 16.0482C161.1 15.7492 159.533 15.7492 158.656 16.0321C158.202 16.1781 157.781 16.4821 157.024 17.1522C156.509 17.6091 156.137 17.9259 155.829 18.1408C156.137 18.3556 156.509 18.6723 157.024 19.1293C157.781 19.7994 158.202 20.1034 158.656 20.2494C159.458 20.508 160.836 20.5302 162.768 20.3036C162.855 20.2179 162.98 20.1721 163.111 20.1903C163.166 20.1979 163.216 20.2159 163.261 20.242L163.326 20.2333C163.55 20.2032 163.756 20.3604 163.786 20.5844C163.817 20.8084 163.659 21.0143 163.435 21.0444L163.407 21.0481C163.177 22.8813 163.193 24.183 163.443 24.9298C163.58 25.3397 163.868 25.7256 164.505 26.4179C164.977 26.9321 165.294 27.2917 165.5 27.5898C165.707 27.2917 166.023 26.9321 166.496 26.418C167.132 25.7257 167.42 25.3398 167.557 24.93C167.825 24.1304 167.825 22.6949 167.54 20.6522C167.509 20.4284 167.665 20.2216 167.889 20.1905C167.985 20.1771 168.078 20.1981 168.155 20.2442C170.338 20.5321 171.876 20.5286 172.743 20.2492C173.196 20.1032 173.618 19.7993 174.374 19.1291C174.89 18.6722 175.261 18.3555 175.569 18.1406C175.261 17.9257 174.89 17.609 174.374 17.1521C173.618 16.482 173.196 16.178 172.743 16.032C171.895 15.7587 170.404 15.7494 168.296 16.0188C168.214 16.1545 168.056 16.2356 167.889 16.2124C167.665 16.1812 167.509 15.9745 167.54 15.7506C167.825 13.7079 167.825 12.2725 167.557 11.4729C167.42 11.063 167.132 10.6771 166.496 9.98483C166.047 9.49643 165.739 9.14753 165.532 8.85832C165.342 9.09218 165.095 9.36749 164.778 9.71237C164.141 10.4047 163.853 10.7906 163.716 11.2004ZM176.744 17.7314C176.337 17.7302 175.98 17.4821 174.917 16.5396C174.075 15.7939 173.592 15.446 172.994 15.2531C172.04 14.9458 170.53 14.9245 168.439 15.1763C168.648 13.3743 168.617 12.0601 168.334 11.2134C168.147 10.6556 167.813 10.2091 167.098 9.431C166.445 8.72036 166.144 8.35499 166.029 8.06922C166.096 7.88697 166.122 7.70865 166.122 7.50148C166.122 7.27549 165.938 7.09229 165.712 7.09229C165.503 7.09229 165.33 7.25034 165.306 7.45393C165.212 7.52891 165.152 7.6444 165.152 7.77394C165.152 7.84047 165.154 7.90401 165.16 7.96567C165.006 8.22994 164.707 8.5797 164.175 9.15854C163.46 9.93663 163.126 10.3832 162.94 10.9409C162.643 11.8281 162.623 13.2284 162.866 15.1653C160.824 14.9253 159.344 14.9505 158.404 15.2532C157.806 15.4461 157.323 15.794 156.482 16.5397C155.415 17.4846 155.06 17.7315 154.651 17.7315C154.425 17.7315 154.242 17.9147 154.242 18.1407V18.1408C154.242 18.3668 154.425 18.55 154.651 18.55C155.06 18.55 155.415 18.7969 156.482 19.7418C157.323 20.4875 157.806 20.8354 158.404 21.0283C159.298 21.3162 160.68 21.3531 162.57 21.1495C162.352 22.991 162.38 24.3306 162.667 25.1893C162.853 25.7471 163.187 26.1936 163.902 26.9717C164.795 27.9429 165.03 28.2692 165.03 28.6288C165.03 28.8548 165.213 29.038 165.439 29.038C165.46 29.038 165.48 29.0365 165.5 29.0335C165.52 29.0365 165.54 29.0381 165.561 29.0381C165.787 29.0381 165.97 28.8549 165.97 28.6289C165.97 28.2693 166.205 27.943 167.098 26.9718C167.813 26.1937 168.147 25.7472 168.334 25.1894C168.623 24.3235 168.649 22.9686 168.424 21.1031C170.523 21.3568 172.038 21.3362 172.994 21.0282C173.592 20.8353 174.075 20.4873 174.917 19.7416C175.98 18.7992 176.337 18.5511 176.744 18.5498C176.745 18.5498 176.746 18.5498 176.747 18.5498C176.973 18.5498 177.156 18.3666 177.156 18.1406C177.156 17.9146 176.973 17.7314 176.747 17.7314C176.746 17.7314 176.745 17.7314 176.744 17.7314Z" fill="#00C0C5"/>
<path d="M113.498 4.67578L107.297 15.0106L101.065 4.67578H96.6621V26.5318H100.941V12.3878L107.049 22.5041H107.545L113.653 12.3566V26.5318H117.901V4.67578H113.498Z" fill="#778294"/>
<path d="M137.035 20.3809C137.128 19.7877 137.19 19.2569 137.19 18.7261C137.19 16.3844 136.446 14.4486 134.957 12.8562C133.5 11.2638 131.609 10.4832 129.345 10.4832C126.958 10.4832 124.973 11.2638 123.454 12.8562C121.935 14.4173 121.16 16.3844 121.16 18.7261C121.16 21.099 121.935 23.0661 123.485 24.6272C125.035 26.1884 127.082 26.969 129.655 26.969C132.632 26.969 134.895 25.8449 136.415 23.6281L133.19 21.7547C132.415 22.7851 131.236 23.3159 129.717 23.3159C127.33 23.3159 125.872 22.348 125.345 20.3809H137.035ZM125.283 17.2586C125.748 15.2604 127.206 14.1051 129.345 14.1051C131.174 14.1051 132.725 15.1355 133.19 17.2586H125.283Z" fill="#778294"/>
<path d="M16.7138 26.5318L11.9078 18.289C14.4193 17.1337 16.0936 14.6359 16.0936 11.9195C16.0936 9.92123 15.3805 8.20397 13.9852 6.79894C12.59 5.39391 10.8846 4.67578 8.86922 4.67578H0.1875V26.5318H4.46635V18.9447H7.72199L12.0939 26.5318H16.7138ZM8.86922 8.70354C10.4815 8.70354 11.8148 10.1398 11.8148 11.9195C11.8148 13.6992 10.4815 15.1667 8.86922 15.1667H4.46635V8.70354H8.86922Z" fill="#5D697C"/>
<path d="M33.5352 20.3809C33.6282 19.7877 33.6902 19.2569 33.6902 18.7261C33.6902 16.3844 32.9461 14.4486 31.4578 12.8562C30.0005 11.2638 28.1091 10.4832 25.8457 10.4832C23.4582 10.4832 21.4738 11.2638 19.9545 12.8562C18.4352 14.4173 17.6601 16.3844 17.6601 18.7261C17.6601 21.099 18.4352 23.0661 19.9855 24.6272C21.5358 26.1884 23.5822 26.969 26.1558 26.969C29.1323 26.969 31.3958 25.8449 32.9151 23.6281L29.6905 21.7547C28.9153 22.7851 27.7371 23.3159 26.2178 23.3159C23.8303 23.3159 22.373 22.348 21.8459 20.3809H33.5352ZM21.7839 17.2586C22.249 15.2604 23.7063 14.1051 25.8457 14.1051C27.6751 14.1051 29.2254 15.1355 29.6905 17.2586H21.7839Z" fill="#5D697C"/>
<path d="M45.3085 10.4832C43.2001 10.4832 41.6497 11.2014 40.6886 12.6689V10.9204H36.6888V26.5318H40.6886V18.1016C40.6886 15.5101 42.0218 14.23 44.0992 14.23C45.9596 14.23 47.1688 15.354 47.1688 17.446V26.5318H51.1686V16.9464C51.1686 14.9169 50.6105 13.3558 49.4943 12.2005C48.4091 11.0453 47.0138 10.4832 45.3085 10.4832Z" fill="#5D697C"/>
<path d="M69.8592 20.3809C69.9522 19.7877 70.0142 19.2569 70.0142 18.7261C70.0142 16.3844 69.2701 14.4486 67.7818 12.8562C66.3245 11.2638 64.4331 10.4832 62.1697 10.4832C59.7822 10.4832 57.7978 11.2638 56.2785 12.8562C54.7592 14.4173 53.984 16.3844 53.984 18.7261C53.984 21.099 54.7592 23.0661 56.3095 24.6272C57.8598 26.1884 59.9062 26.969 62.4797 26.969C65.4563 26.969 67.7197 25.8449 69.2391 23.6281L66.0144 21.7547C65.2393 22.7851 64.061 23.3159 62.5417 23.3159C60.1543 23.3159 58.697 22.348 58.1699 20.3809H69.8592ZM58.1078 17.2586C58.5729 15.2604 60.0302 14.1051 62.1697 14.1051C63.999 14.1051 65.5493 15.1355 66.0144 17.2586H58.1078Z" fill="#5D697C"/>
<path d="M87.2281 20.537L84.4065 10.9204H80.6238L77.8022 20.5058L75.1667 10.9204H70.9188L75.8488 26.5318H79.6626L82.5151 17.0713L85.3677 26.5318H89.1814L94.1114 10.9204H89.8636L87.2281 20.537Z" fill="#5D697C"/>
</svg>
